<svg id="Layer_1" data-name="Layer 1" xmlns="http://www.w3.org/2000/svg" viewBox="0 0 768 768"><defs><style>.cls-1{fill:#fff;}</style></defs><title>checked</title><rect class="cls-1" x="10" y="10" width="748" height="748" rx="195.37"/><path d="M564.63,24A185.36,185.36,0,0,1,750,209.37V566.63A185.36,185.36,0,0,1,564.63,752H207.37A185.36,185.36,0,0,1,22,566.63V209.37A185.36,185.36,0,0,1,207.37,24H564.63m0-20H207.37C94,4,2,96,2,209.37V566.63C2,680.05,94,772,207.37,772H564.63C678.05,772,770,680.05,770,566.63V209.37C770,96,678.05,4,564.63,4Z" transform="translate(-2 -4)"/><g id="_9" data-name="9"><path d="M699.62,164.62a85.41,85.41,0,0,0-122.5,0L270.86,477l-76.58-78.1a85.4,85.4,0,0,0-122.5,0C38,433.4,38,489.34,71.78,523.83L209.6,664.4a85.41,85.41,0,0,0,122.5,0L699.62,289.58C733.46,255.07,733.46,199.13,699.62,164.62Z" transform="translate(-2 -4)"/></g></svg>