<svg id="Layer_1" data-name="Layer 1" xmlns="http://www.w3.org/2000/svg" viewBox="0 0 768 768"><defs><style>.cls-1{fill:#fff;}</style></defs><title>unchecked</title><rect class="cls-1" x="10" y="10" width="748" height="748" rx="195.37"/><path d="M564.63,24A185.36,185.36,0,0,1,750,209.37V566.63A185.36,185.36,0,0,1,564.63,752H207.37A185.36,185.36,0,0,1,22,566.63V209.37A185.36,185.36,0,0,1,207.37,24H564.63m0-20H207.37C94,4,2,96,2,209.37V566.63C2,680.05,94,772,207.37,772H564.63C678.05,772,770,680.05,770,566.63V209.37C770,96,678.05,4,564.63,4Z" transform="translate(-2 -4)"/></svg>